<?xml version="1.0" encoding="UTF-8"?>
<svg width="27px" height="27px" viewBox="0 0 27 27" version="1.1" xmlns="http://www.w3.org/2000/svg" xmlns:xlink="http://www.w3.org/1999/xlink">
    <!-- Generator: Sketch 51.3 (57544) - http://www.bohemiancoding.com/sketch -->
    <title>Facebook</title>
    <desc>Created with Sketch.</desc>
    <defs></defs>
    <g id="Page-1" stroke="none" stroke-width="1" fill="none" fill-rule="evenodd">
        <g id="3-vesti-copy" transform="translate(-941.000000, -1150.000000)" fill="#FFFFFF">
            <path d="M967.84503,1175.50923 C967.84503,1176.33221 967.181784,1177 966.363511,1177 L959.522639,1177 L959.522639,1166.54405 L963.012179,1166.54405 L963.535025,1162.46963 L959.522639,1162.46963 L959.522639,1159.86759 C959.522639,1158.68792 959.848778,1157.88407 961.53066,1157.88407 L963.676157,1157.88334 L963.676157,1154.23842 C963.30468,1154.18915 962.031568,1154.07809 960.55005,1154.07809 C957.45685,1154.07809 955.339141,1155.97704 955.339141,1159.46456 L955.339141,1162.46963 L951.840826,1162.46963 L951.840826,1166.54405 L955.339141,1166.54405 L955.339141,1177 L942.481519,1177 C941.663247,1177 941,1176.33221 941,1175.50923 L941,1151.49077 C941,1150.66706 941.663247,1150 942.481519,1150 L966.363511,1150 C967.181784,1150 967.84503,1150.66706 967.84503,1151.49077 L967.84503,1175.50923" id="Facebook"></path>
        </g>
    </g>
</svg>