<?xml version="1.0" encoding="UTF-8"?>
<svg width="31px" height="27px" viewBox="0 0 31 27" version="1.1" xmlns="http://www.w3.org/2000/svg" xmlns:xlink="http://www.w3.org/1999/xlink">
    <!-- Generator: Sketch 51.3 (57544) - http://www.bohemiancoding.com/sketch -->
    <title>Fill 88</title>
    <desc>Created with Sketch.</desc>
    <defs></defs>
    <g id="Page-1" stroke="none" stroke-width="1" fill="none" fill-rule="evenodd">
        <g id="3-vesti-copy" transform="translate(-1008.000000, -1150.000000)" fill="#FFFFFF">
            <path d="M1009.65852,1158.6581 L1015.50627,1158.6581 L1015.50627,1177 L1009.65852,1177 L1009.65852,1158.6581 Z M1031.48389,1158.48178 C1035.63994,1158.48178 1038.9054,1161.12011 1038.9054,1166.80174 L1038.9054,1177 L1032.27443,1177 L1032.27443,1167.50862 C1032.27443,1165.02406 1031.23745,1163.32851 1028.9561,1163.32851 C1027.21153,1163.32851 1026.24124,1164.47257 1025.78985,1165.57556 C1025.62068,1165.97167 1025.64671,1166.52317 1025.64671,1167.07467 L1025.64671,1177 L1019.07755,1177 C1019.07755,1177 1019.16213,1160.18699 1019.07755,1158.6581 L1025.64671,1158.6581 L1025.64671,1161.53715 C1026.03466,1160.27797 1028.13383,1158.48178 1031.48389,1158.48178 Z M1012.47422,1150 C1014.63195,1150 1015.95847,1151.36948 1016.00077,1153.17936 C1016.00077,1154.95703 1014.63195,1156.36435 1012.43356,1156.36435 L1012.39127,1156.36435 C1010.27501,1156.36435 1008.90213,1154.96186 1008.90213,1153.18419 C1008.90213,1151.3727 1010.31487,1150 1012.47422,1150 Z" id="Fill-88"></path>
        </g>
    </g>
</svg>