<?xml version="1.0" encoding="UTF-8"?>
<svg width="23px" height="26px" viewBox="0 0 23 26" version="1.1" xmlns="http://www.w3.org/2000/svg" xmlns:xlink="http://www.w3.org/1999/xlink">
    <!-- Generator: Sketch 51.3 (57544) - http://www.bohemiancoding.com/sketch -->
    <title>pdf copy 8</title>
    <desc>Created with Sketch.</desc>
    <defs></defs>
    <g id="Page-1" stroke="none" stroke-width="1" fill="none" fill-rule="evenodd">
        <g id="2-o-nama" transform="translate(-450.000000, -547.000000)">
            <g id="pdf" transform="translate(446.000000, 543.000000)">
                <path d="M9.29333333,4.76 C7.922,4.76 6.8,5.8616 6.8,7.208 L6.8,26.792 C6.8,28.1384 7.922,29.24 9.29333333,29.24 L24.2533333,29.24 C25.6246667,29.24 26.7466667,28.1384 26.7466667,26.792 L26.7466667,12.104 L19.2666667,4.76 L9.29333333,4.76 L9.29333333,4.76 Z" id="Mask-Copy-3" fill="#D0021B"></path>
                <rect id="Rectangle-4-Copy-6" stroke="#D0021B" stroke-width="1" fill="#FFFFFF" x="5.26" y="14.1" width="18.04" height="9.2"></rect>
                <path d="M9.45658868,19.4729605 L9.45658868,21.08 L8.56784714,21.08 L8.56784714,16.6484668 L10.2631521,16.6484668 C10.7724563,16.6484668 11.1731976,16.7783273 11.4653881,17.0380522 C11.7575785,17.297777 11.9036716,17.6396753 11.9036716,18.0637573 C11.9036716,18.4878393 11.7575785,18.8287231 11.4653881,19.0864188 C11.1731976,19.3441146 10.7724563,19.4729605 10.2631521,19.4729605 L9.45658868,19.4729605 Z M9.45658868,18.7881425 L10.2631521,18.7881425 C10.5107023,18.7881425 10.6983913,18.720676 10.8262246,18.5857408 C10.9540579,18.4508056 11.0179736,18.2788419 11.0179736,18.0698446 C11.0179736,17.856789 10.9545652,17.6807672 10.8277464,17.5417738 C10.7009277,17.4027805 10.5127314,17.3332848 10.2631521,17.3332848 L9.45658868,17.3332848 L9.45658868,18.7881425 Z M12.5397914,21.08 L12.5397914,16.6484668 L14.0859581,16.6484668 C14.627728,16.6484668 15.0741234,16.8214451 15.4251577,17.1674067 C15.7761921,17.5133683 15.9517066,17.9572274 15.9517066,18.4989972 L15.9517066,19.2325133 C15.9517066,19.7763122 15.7761921,20.2201713 15.4251577,20.5641038 C15.0741234,20.9080363 14.627728,21.08 14.0859581,21.08 L12.5397914,21.08 Z M13.4285329,17.3332848 L13.4285329,20.3982257 L14.0859581,20.3982257 C14.3781486,20.3982257 14.6135207,20.2891632 14.7920816,20.0710349 C14.9706424,19.8529066 15.0599215,19.5734022 15.0599215,19.2325133 L15.0599215,18.4929099 C15.0599215,18.1540501 14.9706424,17.8760675 14.7920816,17.6589538 C14.6135207,17.4418401 14.3781486,17.3332848 14.0859581,17.3332848 L13.4285329,17.3332848 Z M19.2540511,19.2386006 L17.5526589,19.2386006 L17.5526589,21.08 L16.6639173,21.08 L16.6639173,16.6484668 L19.5645019,16.6484668 L19.5645019,17.3332848 L17.5526589,17.3332848 L17.5526589,18.5537826 L19.2540511,18.5537826 L19.2540511,19.2386006 Z" id="PDF" fill="#D0021B"></path>
            </g>
        </g>
    </g>
</svg>