<?xml version="1.0" encoding="UTF-8"?>
<svg width="14px" height="15px" viewBox="0 0 14 15" version="1.1" xmlns="http://www.w3.org/2000/svg" xmlns:xlink="http://www.w3.org/1999/xlink">
    <!-- Generator: Sketch 51.3 (57544) - http://www.bohemiancoding.com/sketch -->
    <title>Imported Layers</title>
    <desc>Created with Sketch.</desc>
    <defs></defs>
    <g id="Page-1" stroke="none" stroke-width="1" fill="none" fill-rule="evenodd">
        <g id="1-home" transform="translate(-1337.000000, -43.000000)" fill="#FF0000">
            <path d="M1349.05018,54.5565182 C1350.03093,53.3344751 1350.62152,51.76486 1350.62152,50.0521862 C1350.62152,46.1573645 1347.57224,43 1343.81076,43 C1340.04927,43 1337,46.1573645 1337,50.0521862 C1337,53.9470079 1340.04927,57.1043724 1343.81076,57.1043724 C1345.21572,57.1043724 1346.52047,56.663107 1347.60435,55.9085231 L1349.62423,58 L1351,56.5754584 L1349.05018,54.5565182 L1349.05018,54.5565182 Z M1343.81076,55.089462 C1341.1244,55.089462 1338.94593,52.8337699 1338.94593,50.0521862 C1338.94593,47.2706025 1341.1244,45.0149103 1343.81076,45.0149103 C1346.49712,45.0149103 1348.67559,47.2706025 1348.67559,50.0521862 C1348.67559,52.8337699 1346.49712,55.089462 1343.81076,55.089462 L1343.81076,55.089462 Z" id="Imported-Layers"></path>
        </g>
    </g>
</svg>