<?xml version="1.0" encoding="utf-8"?>
<!-- Generator: Adobe Illustrator 17.0.0, SVG Export Plug-In . SVG Version: 6.00 Build 0)  -->
<!DOCTYPE svg PUBLIC "-//W3C//DTD SVG 1.1//EN" "http://www.w3.org/Graphics/SVG/1.1/DTD/svg11.dtd">
<svg version="1.1" id="Layer_1" xmlns="http://www.w3.org/2000/svg" xmlns:xlink="http://www.w3.org/1999/xlink" x="0px" y="0px"
	 width="317.786px" height="54.662px" viewBox="0 0 317.786 54.662" enable-background="new 0 0 317.786 54.662"
	 xml:space="preserve">
<path fill="#231F20" d="M4.459,17.945c0.492,1.308,1.07,2.35,1.732,3.127c1.154,1.355,2.587,2.032,4.299,2.032
	c0.927,0,1.729-0.294,2.406-0.881c0.676-0.587,1.015-1.407,1.015-2.459c0-0.948-0.34-1.772-1.021-2.473
	c-0.445-0.445-1.381-1.113-2.809-2.004l-2.483-1.549c-0.747-0.474-1.343-0.952-1.788-1.436c-0.824-0.919-1.237-1.933-1.237-3.042
	c0-1.469,0.488-2.691,1.464-3.667s2.269-1.464,3.88-1.464c0.663,0,1.462,0.163,2.395,0.49s1.466,0.49,1.599,0.49
	c0.36,0,0.609-0.085,0.746-0.256s0.244-0.412,0.32-0.725h0.597l0.64,6.197h-0.696c-0.474-1.867-1.234-3.169-2.281-3.909
	c-1.047-0.739-2.082-1.109-3.106-1.109c-0.796,0-1.49,0.235-2.082,0.704C7.457,6.48,7.161,7.131,7.161,7.965
	c0,0.749,0.227,1.388,0.681,1.919c0.454,0.54,1.158,1.104,2.115,1.691l2.556,1.578c1.6,0.985,2.728,1.89,3.385,2.715
	c0.647,0.834,0.97,1.819,0.97,2.956c0,1.526-0.576,2.8-1.727,3.823s-2.622,1.535-4.413,1.535c-0.9,0-1.841-0.171-2.821-0.512
	c-0.981-0.341-1.542-0.512-1.684-0.512c-0.341,0-0.571,0.104-0.689,0.313s-0.197,0.431-0.235,0.668h-0.64l-0.867-6.197h0.667
	C4.459,17.942,4.459,17.945,4.459,17.945z"/>
<path fill="#231F20" d="M27.427,4.542v0.54c-1.118,0.076-1.843,0.263-2.175,0.561s-0.497,0.983-0.497,2.054v9.309
	c0,1.526,0.208,2.715,0.625,3.567c0.777,1.554,2.25,2.331,4.42,2.331c2.378,0,3.975-0.796,4.79-2.388
	c0.455-0.891,0.682-2.265,0.682-4.122V8.819c0-1.582-0.19-2.575-0.569-2.978s-1.099-0.656-2.16-0.76v-0.54h6.737v0.54
	c-1.128,0.123-1.864,0.396-2.21,0.817c-0.346,0.422-0.519,1.395-0.519,2.921v7.575c0,2.009-0.308,3.577-0.924,4.704
	c-1.137,2.075-3.297,3.113-6.481,3.113c-3.146,0-5.287-1.023-6.424-3.07c-0.616-1.099-0.924-2.549-0.924-4.349V7.696
	c0-1.061-0.163-1.741-0.49-2.04c-0.327-0.298-1.04-0.49-2.139-0.576V4.54h8.258C27.427,4.54,27.427,4.542,27.427,4.542z"/>
<path fill="#231F20" d="M3.791,50.067l12.763-17.823H9.845c-1.687,0-2.885,0.422-3.596,1.265c-0.426,0.502-0.763,1.369-1.009,2.601
	H4.487l0.583-4.975h15.364v0.327L7.671,49.285h7.553c1.713,0,2.962-0.403,3.747-1.208c0.488-0.512,0.927-1.445,1.321-2.8h0.682
	l-0.725,5.117H3.791V50.067z"/>
<path fill="#231F20" d="M24.918,49.854c1.184-0.085,1.952-0.262,2.302-0.531c0.351-0.268,0.526-0.963,0.526-2.085V34.291
	c0-1.071-0.175-1.76-0.526-2.068c-0.351-0.308-1.118-0.49-2.302-0.547v-0.54h8.613v0.54c-1.184,0.057-1.952,0.239-2.302,0.547
	c-0.351,0.308-0.526,0.997-0.526,2.068v12.948c0,1.122,0.175,1.817,0.526,2.085c0.351,0.269,1.118,0.445,2.302,0.531v0.54h-8.613
	V49.854z"/>
<path fill="#231F20" d="M53.837,17.945c0.49,1.308,1.068,2.35,1.732,3.127c1.154,1.355,2.587,2.032,4.299,2.032
	c0.926,0,1.729-0.294,2.404-0.881c0.677-0.587,1.016-1.407,1.016-2.459c0-0.948-0.341-1.772-1.021-2.473
	c-0.445-0.445-1.381-1.113-2.809-2.004l-2.483-1.549c-0.749-0.474-1.343-0.952-1.788-1.436c-0.824-0.919-1.237-1.933-1.237-3.042
	c0-1.469,0.488-2.691,1.464-3.667s2.269-1.464,3.88-1.464c0.663,0,1.462,0.163,2.395,0.49s1.466,0.49,1.599,0.49
	c0.36,0,0.609-0.085,0.746-0.256s0.244-0.412,0.32-0.725h0.597l0.64,6.197h-0.696c-0.474-1.867-1.234-3.169-2.281-3.909
	c-1.047-0.739-2.082-1.109-3.106-1.109c-0.796,0-1.49,0.235-2.082,0.704s-0.888,1.12-0.888,1.954c0,0.749,0.227,1.388,0.68,1.919
	c0.455,0.54,1.158,1.104,2.115,1.691l2.556,1.578c1.601,0.985,2.729,1.89,3.385,2.715c0.647,0.834,0.971,1.819,0.971,2.956
	c0,1.526-0.576,2.8-1.727,3.823s-2.622,1.535-4.413,1.535c-0.9,0-1.841-0.171-2.821-0.512c-0.981-0.341-1.542-0.512-1.684-0.512
	c-0.341,0-0.571,0.104-0.689,0.313c-0.118,0.208-0.197,0.431-0.235,0.668h-0.64l-0.867-6.197h0.668L53.837,17.945L53.837,17.945z"/>
<path fill="#231F20" d="M68.578,23.801v-0.54c0.749-0.084,1.31-0.366,1.684-0.844c0.374-0.48,1.016-1.79,1.923-3.93l6.064-14.285
	h0.58l7.253,16.501c0.483,1.093,0.867,1.77,1.158,2.029c0.289,0.258,0.775,0.435,1.457,0.529v0.54h-7.403v-0.54
	c0.85-0.076,1.398-0.167,1.644-0.276c0.246-0.108,0.37-0.374,0.37-0.799c0-0.141-0.047-0.391-0.142-0.749
	c-0.095-0.359-0.227-0.737-0.398-1.132l-1.165-2.8h-7.67c-0.756,1.905-1.208,3.066-1.355,3.486s-0.22,0.752-0.22,0.997
	c0,0.49,0.199,0.83,0.597,1.019c0.246,0.114,0.708,0.198,1.39,0.255v0.54L68.578,23.801L68.578,23.801z M81.114,16.325l-3.335-8.016
	l-3.352,8.016H81.114z"/>
<path fill="#231F20" d="M51.179,49.854c1.071-0.113,1.765-0.303,2.082-0.572s0.476-0.95,0.476-2.043V34.291
	c0-1.033-0.156-1.708-0.469-2.025s-1.009-0.514-2.089-0.59v-0.54h15.464l0.099,4.164h-0.739c-0.246-1.283-0.616-2.113-1.109-2.49
	c-0.493-0.378-1.592-0.566-3.297-0.566h-3.963c-0.429,0-0.692,0.069-0.791,0.206s-0.149,0.396-0.149,0.775v6.495h4.491
	c1.241,0,2.032-0.184,2.374-0.552c0.341-0.367,0.616-1.112,0.824-2.234h0.682v6.723h-0.682c-0.218-1.128-0.497-1.874-0.839-2.239
	c-0.341-0.365-1.128-0.547-2.359-0.547h-4.491v7.206c0,0.578,0.182,0.919,0.547,1.023s1.459,0.156,3.281,0.156
	c1.973,0,3.43-0.216,4.37-0.647c0.938-0.431,1.784-1.476,2.532-3.134h0.81l-1.322,4.918H51.179V49.854z"/>
<path fill="#231F20" d="M70.11,49.854c1.071-0.113,1.765-0.303,2.082-0.572s0.476-0.95,0.476-2.043V34.291
	c0-1.033-0.156-1.708-0.469-2.025s-1.009-0.514-2.089-0.59v-0.54h15.464l0.099,4.164h-0.738c-0.246-1.283-0.616-2.113-1.109-2.49
	c-0.493-0.378-1.592-0.566-3.297-0.566h-3.964c-0.429,0-0.692,0.069-0.791,0.206s-0.149,0.396-0.149,0.775v6.495h4.491
	c1.241,0,2.032-0.184,2.374-0.552c0.341-0.367,0.616-1.112,0.824-2.234h0.682v6.723h-0.682c-0.218-1.128-0.497-1.874-0.839-2.239
	c-0.341-0.365-1.128-0.547-2.359-0.547h-4.491v7.206c0,0.578,0.182,0.919,0.547,1.023s1.459,0.156,3.281,0.156
	c1.973,0,3.43-0.216,4.37-0.647c0.938-0.431,1.784-1.476,2.532-3.134h0.81l-1.322,4.918H70.11V49.854z"/>
<rect x="44.758" y="4.258" fill="#EE2C24" width="0.695" height="46.136"/>
<g>
	<g enable-background="new    ">
		<path fill="#231F20" d="M99.666,10.777l0.8-0.958c0.554,0.457,1.134,0.747,1.837,0.747c0.554,0,0.888-0.22,0.888-0.598
			c0-0.343-0.211-0.519-1.239-0.782c-1.239-0.316-2.039-0.659-2.039-1.898c0-1.116,0.896-1.854,2.153-1.854
			c0.896,0,1.661,0.281,2.285,0.782l-0.703,1.02c-0.545-0.378-1.081-0.606-1.6-0.606s-0.791,0.237-0.791,0.554
			c0,0.404,0.264,0.536,1.327,0.809c1.248,0.325,1.951,0.773,1.951,1.863c0,1.222-0.932,1.907-2.259,1.907
			C101.345,11.761,100.405,11.436,99.666,10.777z"/>
		<path fill="#231F20" d="M105.573,6.962h1.336v0.949c0.272-0.65,0.712-1.072,1.503-1.037v1.397h-0.07
			c-0.888,0-1.433,0.536-1.433,1.661v1.74h-1.336V6.962z"/>
		<path fill="#231F20" d="M109.247,6.962h1.336v0.677c0.325-0.439,0.773-0.765,1.468-0.765c1.099,0,2.145,0.861,2.145,2.452
			c0,1.573-1.028,2.435-2.145,2.435c-0.712,0-1.151-0.325-1.468-0.703v2.021h-1.336V6.962z M112.86,9.309
			c0-0.782-0.527-1.301-1.151-1.301s-1.143,0.519-1.143,1.318c0,0.782,0.519,1.301,1.143,1.301S112.86,10.118,112.86,9.309z"/>
		<path fill="#231F20" d="M114.811,11.049l0.571-0.879c0.51,0.369,1.046,0.562,1.485,0.562c0.387,0,0.562-0.141,0.562-0.369
			c0-0.29-0.457-0.387-0.976-0.545c-0.659-0.193-1.406-0.501-1.406-1.433c0-0.958,0.773-1.494,1.723-1.494
			c0.598,0,1.248,0.202,1.758,0.545l-0.51,0.923c-0.466-0.272-0.932-0.439-1.274-0.439c-0.325,0-0.492,0.141-0.492,0.343
			c0,0.264,0.448,0.387,0.958,0.562c0.659,0.22,1.424,0.536,1.424,1.415c0,1.046-0.782,1.521-1.802,1.521
			C116.173,11.761,115.435,11.541,114.811,11.049z"/>
		<path fill="#231F20" d="M119.592,5.257h1.336v3.419l1.564-1.714h1.6l-1.793,1.854l1.854,2.856h-1.529l-1.23-1.925l-0.466,0.492
			v1.433h-1.336C119.592,11.672,119.592,5.257,119.592,5.257z"/>
		<path fill="#231F20" d="M124.347,9.327c0-1.354,1.09-2.452,2.558-2.452c1.459,0,2.54,1.081,2.54,2.452
			c0,1.354-1.09,2.452-2.558,2.452C125.428,11.779,124.347,10.698,124.347,9.327z M128.126,9.327c0-0.694-0.501-1.301-1.239-1.301
			c-0.765,0-1.222,0.589-1.222,1.301c0,0.694,0.501,1.301,1.239,1.301C127.669,10.627,128.126,10.039,128.126,9.327z"/>
		<path fill="#231F20" d="M133.013,10.012v-3.05h1.336V9.59c0,0.633,0.299,0.958,0.809,0.958s0.835-0.325,0.835-0.958V6.962h1.336
			v4.711h-1.336v-0.668c-0.308,0.396-0.703,0.756-1.38,0.756C133.602,11.761,133.013,11.093,133.013,10.012z"/>
		<path fill="#231F20" d="M138.313,9.309c0-1.573,1.028-2.435,2.145-2.435c0.712,0,1.151,0.325,1.468,0.703v-2.32h1.336v6.416
			h-1.336v-0.677c-0.325,0.439-0.773,0.765-1.468,0.765C139.359,11.761,138.313,10.9,138.313,9.309z M141.943,9.309
			c0-0.782-0.519-1.301-1.143-1.301s-1.151,0.51-1.151,1.318c0,0.782,0.527,1.301,1.151,1.301S141.943,10.109,141.943,9.309z"/>
		<path fill="#231F20" d="M144.456,6.962h1.336v0.949c0.272-0.65,0.712-1.072,1.503-1.037v1.397h-0.07
			c-0.888,0-1.433,0.536-1.433,1.661v1.74h-1.336V6.962z"/>
		<path fill="#231F20" d="M148.095,10.012v-3.05h1.336V9.59c0,0.633,0.299,0.958,0.809,0.958s0.835-0.325,0.835-0.958V6.962h1.336
			v4.711h-1.336v-0.668c-0.308,0.396-0.703,0.756-1.38,0.756C148.684,11.761,148.095,11.093,148.095,10.012z"/>
		<path fill="#231F20" d="M153.449,10.733l2.435-2.689h-2.355V6.962h4.017v0.94l-2.443,2.689h2.443v1.081h-4.096v-0.939H153.449z
			 M153.835,5.064h1.028l0.694,0.58l0.694-0.58h1.011l-1.081,1.38h-1.266L153.835,5.064z"/>
		<path fill="#231F20" d="M158.327,9.327c0-1.345,0.958-2.452,2.329-2.452c1.573,0,2.294,1.222,2.294,2.558
			c0,0.105-0.009,0.229-0.018,0.352h-3.278c0.132,0.606,0.554,0.923,1.151,0.923c0.448,0,0.773-0.141,1.143-0.483l0.765,0.677
			c-0.439,0.545-1.072,0.879-1.925,0.879C159.372,11.779,158.327,10.786,158.327,9.327z M161.649,8.949
			c-0.079-0.598-0.431-1.002-0.993-1.002c-0.554,0-0.914,0.396-1.02,1.002H161.649z"/>
		<path fill="#231F20" d="M163.943,6.962h1.336V7.63c0.308-0.396,0.703-0.756,1.38-0.756c1.011,0,1.6,0.668,1.6,1.749v3.05h-1.336
			V9.045c0-0.633-0.299-0.958-0.809-0.958s-0.835,0.325-0.835,0.958v2.628h-1.336V6.962z"/>
		<path fill="#231F20" d="M168.724,13.053v-1.046c0.105,0.018,0.185,0.026,0.281,0.026c0.281,0,0.475-0.149,0.475-0.545V6.962h1.336
			v4.632c0,1.037-0.527,1.512-1.512,1.512C169.058,13.106,168.909,13.088,168.724,13.053z M169.445,5.257h1.406v1.187h-1.406V5.257z
			"/>
		<path fill="#231F20" d="M171.844,9.327c0-1.345,0.958-2.452,2.329-2.452c1.573,0,2.294,1.222,2.294,2.558
			c0,0.105-0.009,0.229-0.018,0.352h-3.278c0.132,0.606,0.554,0.923,1.151,0.923c0.448,0,0.773-0.141,1.143-0.483l0.765,0.677
			c-0.439,0.545-1.072,0.879-1.925,0.879C172.89,11.779,171.844,10.786,171.844,9.327z M175.166,8.949
			c-0.079-0.598-0.431-1.002-0.993-1.002c-0.554,0-0.914,0.396-1.02,1.002H175.166z"/>
		<path fill="#231F20" d="M179.939,10.733l2.435-2.689h-2.355V6.962h4.017v0.94l-2.443,2.689h2.443v1.081h-4.096v-0.939H179.939z"/>
		<path fill="#231F20" d="M184.764,10.302c0-1.028,0.782-1.503,1.898-1.503c0.475,0,0.817,0.079,1.151,0.193V8.914
			c0-0.554-0.343-0.861-1.011-0.861c-0.51,0-0.87,0.097-1.301,0.255l-0.334-1.02c0.519-0.229,1.028-0.378,1.828-0.378
			c0.729,0,1.257,0.193,1.591,0.527c0.352,0.352,0.51,0.87,0.51,1.503v2.733h-1.292v-0.51c-0.325,0.36-0.773,0.598-1.424,0.598
			C185.494,11.761,184.764,11.251,184.764,10.302z M187.831,10.012V9.775c-0.229-0.105-0.527-0.176-0.853-0.176
			c-0.571,0-0.923,0.229-0.923,0.668c0,0.36,0.299,0.571,0.729,0.571C187.41,10.838,187.831,10.496,187.831,10.012z"/>
		<path fill="#231F20" d="M192.727,10.733l2.435-2.689h-2.355V6.962h4.017v0.94l-2.443,2.689h2.443v1.081h-4.096v-0.939H192.727z"/>
		<path fill="#231F20" d="M197.473,9.327c0-1.345,0.958-2.452,2.329-2.452c1.573,0,2.294,1.222,2.294,2.558
			c0,0.105-0.009,0.229-0.018,0.352H198.8c0.132,0.606,0.554,0.923,1.151,0.923c0.448,0,0.773-0.141,1.143-0.483l0.765,0.677
			c-0.439,0.545-1.072,0.879-1.925,0.879C198.519,11.779,197.473,10.786,197.473,9.327z M200.795,8.949
			c-0.079-0.598-0.431-1.002-0.993-1.002c-0.554,0-0.914,0.396-1.02,1.002H200.795z"/>
		<path fill="#231F20" d="M203.089,6.962h1.336V7.63c0.308-0.396,0.712-0.756,1.389-0.756c0.615,0,1.081,0.272,1.327,0.747
			c0.413-0.483,0.905-0.747,1.547-0.747c0.993,0,1.591,0.598,1.591,1.731v3.067h-1.336V9.045c0-0.633-0.281-0.958-0.782-0.958
			s-0.809,0.325-0.809,0.958v2.628h-1.336V9.045c0-0.633-0.281-0.958-0.782-0.958s-0.809,0.325-0.809,0.958v2.628h-1.336V6.962z"/>
		<path fill="#231F20" d="M211.501,5.257h1.336v6.416h-1.336V5.257z"/>
		<path fill="#231F20" d="M213.4,13.053v-1.046c0.105,0.018,0.185,0.026,0.281,0.026c0.281,0,0.475-0.149,0.475-0.545V6.962h1.336
			v4.632c0,1.037-0.527,1.512-1.512,1.512C213.734,13.106,213.584,13.088,213.4,13.053z M214.121,5.257h1.406v1.187h-1.406V5.257z"
			/>
		<path fill="#231F20" d="M216.52,9.327c0-1.354,1.09-2.452,2.558-2.452c1.459,0,2.54,1.081,2.54,2.452
			c0,1.354-1.09,2.452-2.558,2.452C217.601,11.779,216.52,10.698,216.52,9.327z M220.299,9.327c0-0.694-0.501-1.301-1.239-1.301
			c-0.765,0-1.222,0.589-1.222,1.301c0,0.694,0.501,1.301,1.239,1.301C219.842,10.627,220.299,10.039,220.299,9.327z"/>
		<path fill="#231F20" d="M222.804,10.337V8.105h-0.562V6.962h0.562V5.758h1.336v1.204h1.107v1.143h-1.107v2.013
			c0,0.308,0.132,0.457,0.431,0.457c0.246,0,0.466-0.062,0.659-0.167v1.072c-0.281,0.167-0.606,0.272-1.055,0.272
			C223.358,11.752,222.804,11.427,222.804,10.337z"/>
		<path fill="#231F20" d="M226.232,6.962h1.336v0.949c0.272-0.65,0.712-1.072,1.503-1.037v1.397H229
			c-0.888,0-1.433,0.536-1.433,1.661v1.74h-1.336L226.232,6.962L226.232,6.962z"/>
		<path fill="#231F20" d="M229.545,9.327c0-1.345,0.958-2.452,2.329-2.452c1.573,0,2.294,1.222,2.294,2.558
			c0,0.105-0.009,0.229-0.018,0.352h-3.278c0.132,0.606,0.554,0.923,1.151,0.923c0.448,0,0.773-0.141,1.143-0.483l0.765,0.677
			c-0.439,0.545-1.072,0.879-1.925,0.879C230.591,11.779,229.545,10.786,229.545,9.327z M232.868,8.949
			c-0.079-0.598-0.431-1.002-0.993-1.002c-0.554,0-0.914,0.396-1.02,1.002H232.868z"/>
		<path fill="#231F20" d="M234.792,11.049l0.571-0.879c0.51,0.369,1.046,0.562,1.485,0.562c0.387,0,0.562-0.141,0.562-0.369
			c0-0.29-0.457-0.387-0.976-0.545c-0.659-0.193-1.406-0.501-1.406-1.433c0-0.958,0.773-1.494,1.723-1.494
			c0.598,0,1.248,0.202,1.758,0.545L238,8.36c-0.466-0.272-0.932-0.439-1.274-0.439c-0.325,0-0.492,0.141-0.492,0.343
			c0,0.264,0.448,0.387,0.958,0.562c0.659,0.22,1.424,0.536,1.424,1.415c0,1.046-0.782,1.521-1.802,1.521
			C236.155,11.761,235.416,11.541,234.792,11.049z"/>
		<path fill="#231F20" d="M239.574,6.962h1.336V7.63c0.308-0.396,0.703-0.756,1.38-0.756c1.011,0,1.6,0.668,1.6,1.749v3.05h-1.336
			V9.045c0-0.633-0.299-0.958-0.809-0.958s-0.835,0.325-0.835,0.958v2.628h-1.336V6.962z"/>
		<path fill="#231F20" d="M244.821,9.327c0-1.354,1.09-2.452,2.558-2.452c1.459,0,2.54,1.081,2.54,2.452
			c0,1.354-1.09,2.452-2.558,2.452C245.902,11.779,244.821,10.698,244.821,9.327z M248.6,9.327c0-0.694-0.501-1.301-1.239-1.301
			c-0.765,0-1.222,0.589-1.222,1.301c0,0.694,0.501,1.301,1.239,1.301C248.143,10.627,248.6,10.039,248.6,9.327z"/>
		<path fill="#231F20" d="M253.548,5.257h1.406v1.187h-1.406V5.257z M253.583,6.962h1.336v4.711h-1.336V6.962z"/>
		<path fill="#231F20" d="M256.176,6.962h1.336V7.63c0.308-0.396,0.703-0.756,1.38-0.756c1.011,0,1.6,0.668,1.6,1.749v3.05h-1.336
			V9.045c0-0.633-0.299-0.958-0.809-0.958s-0.835,0.325-0.835,0.958v2.628h-1.336L256.176,6.962L256.176,6.962z"/>
		<path fill="#231F20" d="M261.494,10.733l2.435-2.689h-2.355V6.962h4.017v0.94l-2.443,2.689h2.443v1.081h-4.096L261.494,10.733
			L261.494,10.733z M261.88,5.064h1.028l0.694,0.58l0.694-0.58h1.011l-1.081,1.38h-1.266L261.88,5.064z"/>
		<path fill="#231F20" d="M266.372,9.327c0-1.345,0.958-2.452,2.329-2.452c1.573,0,2.294,1.222,2.294,2.558
			c0,0.105-0.009,0.229-0.018,0.352h-3.278c0.132,0.606,0.554,0.923,1.151,0.923c0.448,0,0.773-0.141,1.143-0.483l0.765,0.677
			c-0.439,0.545-1.072,0.879-1.925,0.879C267.417,11.779,266.372,10.786,266.372,9.327z M269.694,8.949
			c-0.079-0.598-0.431-1.002-0.993-1.002c-0.554,0-0.914,0.396-1.02,1.002H269.694z"/>
		<path fill="#231F20" d="M271.989,6.962h1.336V7.63c0.308-0.396,0.703-0.756,1.38-0.756c1.011,0,1.6,0.668,1.6,1.749v3.05h-1.336
			V9.045c0-0.633-0.299-0.958-0.809-0.958s-0.835,0.325-0.835,0.958v2.628h-1.336L271.989,6.962L271.989,6.962z"/>
		<path fill="#231F20" d="M276.77,13.053v-1.046c0.105,0.018,0.185,0.026,0.281,0.026c0.281,0,0.475-0.149,0.475-0.545V6.962h1.336
			v4.632c0,1.037-0.527,1.512-1.512,1.512C277.104,13.106,276.955,13.088,276.77,13.053z M277.491,5.257h1.406v1.187h-1.406V5.257z"
			/>
		<path fill="#231F20" d="M279.89,9.327c0-1.345,0.958-2.452,2.329-2.452c1.573,0,2.294,1.222,2.294,2.558
			c0,0.105-0.009,0.229-0.018,0.352h-3.278c0.132,0.606,0.554,0.923,1.151,0.923c0.448,0,0.773-0.141,1.143-0.483l0.765,0.677
			c-0.439,0.545-1.072,0.879-1.925,0.879C280.936,11.779,279.89,10.786,279.89,9.327z M283.212,8.949
			c-0.079-0.598-0.431-1.002-0.993-1.002c-0.554,0-0.914,0.396-1.02,1.002H283.212z"/>
		<path fill="#231F20" d="M285.506,6.962h1.336v0.949c0.272-0.65,0.712-1.072,1.503-1.037v1.397h-0.07
			c-0.888,0-1.433,0.536-1.433,1.661v1.74h-1.336L285.506,6.962L285.506,6.962z"/>
		<path fill="#231F20" d="M288.811,11.049l0.571-0.879c0.51,0.369,1.046,0.562,1.485,0.562c0.387,0,0.562-0.141,0.562-0.369
			c0-0.29-0.457-0.387-0.976-0.545c-0.659-0.193-1.406-0.501-1.406-1.433c0-0.958,0.773-1.494,1.723-1.494
			c0.598,0,1.248,0.202,1.758,0.545l-0.51,0.923c-0.466-0.272-0.932-0.439-1.274-0.439c-0.325,0-0.492,0.141-0.492,0.343
			c0,0.264,0.448,0.387,0.958,0.562c0.659,0.22,1.424,0.536,1.424,1.415c0,1.046-0.782,1.521-1.802,1.521
			C290.173,11.761,289.435,11.541,288.811,11.049z"/>
		<path fill="#231F20" d="M293.724,10.337V8.105h-0.562V6.962h0.562V5.758h1.336v1.204h1.107v1.143h-1.107v2.013
			c0,0.308,0.132,0.457,0.431,0.457c0.246,0,0.466-0.062,0.659-0.167v1.072c-0.281,0.167-0.606,0.272-1.055,0.272
			C294.278,11.752,293.724,11.427,293.724,10.337z"/>
		<path fill="#231F20" d="M296.73,6.962h1.415l1.055,3.155l1.063-3.155h1.389l-1.854,4.746h-1.213L296.73,6.962z"/>
		<path fill="#231F20" d="M301.933,9.327c0-1.354,1.09-2.452,2.558-2.452c1.459,0,2.54,1.081,2.54,2.452
			c0,1.354-1.09,2.452-2.558,2.452C303.014,11.779,301.933,10.698,301.933,9.327z M305.712,9.327c0-0.694-0.501-1.301-1.239-1.301
			c-0.765,0-1.222,0.589-1.222,1.301c0,0.694,0.501,1.301,1.239,1.301C305.255,10.627,305.712,10.039,305.712,9.327z"/>
	</g>
	<g enable-background="new    ">
		<path fill="#231F20" d="M99.666,24.79l0.8-0.958c0.554,0.457,1.134,0.747,1.837,0.747c0.554,0,0.888-0.22,0.888-0.598
			c0-0.343-0.211-0.519-1.239-0.782c-1.239-0.316-2.039-0.659-2.039-1.898c0-1.116,0.896-1.854,2.153-1.854
			c0.896,0,1.661,0.281,2.285,0.782l-0.703,1.02c-0.545-0.378-1.081-0.606-1.6-0.606s-0.791,0.237-0.791,0.554
			c0,0.404,0.264,0.536,1.327,0.809c1.248,0.325,1.951,0.773,1.951,1.863c0,1.222-0.932,1.907-2.259,1.907
			C101.345,25.775,100.405,25.45,99.666,24.79z"/>
		<path fill="#231F20" d="M105.344,23.34c0-1.345,0.958-2.452,2.329-2.452c1.573,0,2.294,1.222,2.294,2.558
			c0,0.105-0.009,0.229-0.018,0.352h-3.278c0.132,0.606,0.554,0.923,1.151,0.923c0.448,0,0.773-0.141,1.143-0.483l0.765,0.677
			c-0.439,0.545-1.072,0.879-1.925,0.879C106.39,25.792,105.344,24.799,105.344,23.34z M108.666,22.962
			c-0.079-0.598-0.431-1.002-0.993-1.002c-0.554,0-0.914,0.396-1.02,1.002H108.666z"/>
		<path fill="#231F20" d="M110.961,20.976h1.336v0.949c0.272-0.65,0.712-1.072,1.503-1.037v1.397h-0.07
			c-0.888,0-1.433,0.536-1.433,1.661v1.74h-1.336V20.976z"/>
		<path fill="#231F20" d="M115.971,25.072v0.615h-1.336v-6.416h1.336v2.382c0.325-0.439,0.773-0.765,1.468-0.765
			c1.099,0,2.145,0.861,2.145,2.452c0,1.573-1.028,2.435-2.145,2.435C116.727,25.775,116.288,25.45,115.971,25.072z M118.247,23.323
			c0-0.782-0.527-1.301-1.151-1.301s-1.143,0.519-1.143,1.318c0,0.782,0.519,1.301,1.143,1.301S118.247,24.131,118.247,23.323z"/>
		<path fill="#231F20" d="M120.594,19.271H122v1.187h-1.406V19.271z M120.629,20.976h1.336v4.711h-1.336V20.976z"/>
		<path fill="#231F20" d="M122.941,24.316c0-1.028,0.782-1.503,1.898-1.503c0.475,0,0.817,0.079,1.151,0.193v-0.079
			c0-0.554-0.343-0.861-1.011-0.861c-0.51,0-0.87,0.097-1.301,0.255l-0.334-1.02c0.519-0.229,1.028-0.378,1.828-0.378
			c0.729,0,1.257,0.193,1.591,0.527c0.352,0.352,0.51,0.87,0.51,1.503v2.733h-1.292v-0.51c-0.325,0.36-0.773,0.598-1.424,0.598
			C123.67,25.775,122.941,25.265,122.941,24.316z M126.008,24.026v-0.237c-0.229-0.105-0.527-0.176-0.853-0.176
			c-0.571,0-0.923,0.229-0.923,0.668c0,0.36,0.299,0.571,0.729,0.571C125.586,24.852,126.008,24.509,126.008,24.026z"/>
		<path fill="#231F20" d="M128.425,20.976h1.336v0.668c0.308-0.396,0.703-0.756,1.38-0.756c1.011,0,1.6,0.668,1.6,1.749v3.05h-1.336
			v-2.628c0-0.633-0.299-0.958-0.809-0.958s-0.835,0.325-0.835,0.958v2.628h-1.336V20.976z"/>
		<path fill="#231F20" d="M138.788,19.491h1.248l2.637,6.196h-1.415l-0.562-1.38h-2.602l-0.562,1.38h-1.38L138.788,19.491z
			 M140.211,23.112l-0.817-1.995l-0.817,1.995H140.211z"/>
		<path fill="#231F20" d="M143.112,25.063l0.571-0.879c0.51,0.369,1.046,0.562,1.485,0.562c0.387,0,0.562-0.141,0.562-0.369
			c0-0.29-0.457-0.387-0.976-0.545c-0.659-0.193-1.406-0.501-1.406-1.433c0-0.958,0.773-1.494,1.723-1.494
			c0.598,0,1.248,0.202,1.758,0.545l-0.51,0.923c-0.466-0.272-0.932-0.439-1.274-0.439c-0.325,0-0.492,0.141-0.492,0.343
			c0,0.264,0.448,0.387,0.958,0.562c0.659,0.22,1.424,0.536,1.424,1.415c0,1.046-0.782,1.521-1.802,1.521
			C144.474,25.775,143.736,25.555,143.112,25.063z"/>
		<path fill="#231F20" d="M147.436,25.063l0.571-0.879c0.51,0.369,1.046,0.562,1.485,0.562c0.387,0,0.562-0.141,0.562-0.369
			c0-0.29-0.457-0.387-0.976-0.545c-0.659-0.193-1.406-0.501-1.406-1.433c0-0.958,0.773-1.494,1.723-1.494
			c0.598,0,1.248,0.202,1.758,0.545l-0.51,0.923c-0.466-0.272-0.932-0.439-1.274-0.439c-0.325,0-0.492,0.141-0.492,0.343
			c0,0.264,0.448,0.387,0.958,0.562c0.659,0.22,1.424,0.536,1.424,1.415c0,1.046-0.782,1.521-1.802,1.521
			C148.798,25.775,148.06,25.555,147.436,25.063z"/>
		<path fill="#231F20" d="M151.99,23.34c0-1.354,1.09-2.452,2.558-2.452c1.459,0,2.54,1.081,2.54,2.452
			c0,1.354-1.09,2.452-2.558,2.452C153.071,25.792,151.99,24.711,151.99,23.34z M155.769,23.34c0-0.694-0.501-1.301-1.239-1.301
			c-0.765,0-1.222,0.589-1.222,1.301c0,0.694,0.501,1.301,1.239,1.301C155.312,24.641,155.769,24.052,155.769,23.34z"/>
		<path fill="#231F20" d="M157.826,23.34c0-1.345,1.028-2.452,2.47-2.452c0.888,0,1.433,0.334,1.872,0.826l-0.782,0.791
			c-0.29-0.272-0.571-0.466-1.099-0.466c-0.668,0-1.143,0.589-1.143,1.301c0,0.721,0.466,1.301,1.195,1.301
			c0.448,0,0.756-0.193,1.081-0.501l0.782,0.791c-0.457,0.501-0.984,0.861-1.925,0.861C158.863,25.792,157.826,24.703,157.826,23.34
			z"/>
		<path fill="#231F20" d="M163.099,19.271h1.406v1.187h-1.406V19.271z M163.134,20.976h1.336v4.711h-1.336V20.976z"/>
		<path fill="#231F20" d="M165.446,24.316c0-1.028,0.782-1.503,1.898-1.503c0.475,0,0.817,0.079,1.151,0.193v-0.079
			c0-0.554-0.343-0.861-1.011-0.861c-0.51,0-0.87,0.097-1.301,0.255l-0.334-1.02c0.519-0.229,1.028-0.378,1.828-0.378
			c0.729,0,1.257,0.193,1.591,0.527c0.352,0.352,0.51,0.87,0.51,1.503v2.733h-1.292v-0.51c-0.325,0.36-0.773,0.598-1.424,0.598
			C166.175,25.775,165.446,25.265,165.446,24.316z M168.513,24.026v-0.237c-0.229-0.105-0.527-0.176-0.853-0.176
			c-0.571,0-0.923,0.229-0.923,0.668c0,0.36,0.299,0.571,0.729,0.571C168.091,24.852,168.513,24.509,168.513,24.026z"/>
		<path fill="#231F20" d="M171.106,24.351v-2.232h-0.562v-1.143h0.562v-1.204h1.336v1.204h1.107v1.143h-1.107v2.013
			c0,0.308,0.132,0.457,0.431,0.457c0.246,0,0.466-0.062,0.659-0.167v1.072c-0.281,0.167-0.606,0.272-1.055,0.272
			C171.66,25.766,171.106,25.441,171.106,24.351z"/>
		<path fill="#231F20" d="M174.56,19.271h1.406v1.187h-1.406V19.271z M174.595,20.976h1.336v4.711h-1.336V20.976z"/>
		<path fill="#231F20" d="M176.959,23.34c0-1.354,1.09-2.452,2.558-2.452c1.459,0,2.54,1.081,2.54,2.452
			c0,1.354-1.09,2.452-2.558,2.452C178.04,25.792,176.959,24.711,176.959,23.34z M180.739,23.34c0-0.694-0.501-1.301-1.239-1.301
			c-0.765,0-1.222,0.589-1.222,1.301c0,0.694,0.501,1.301,1.239,1.301C180.282,24.641,180.739,24.052,180.739,23.34z"/>
		<path fill="#231F20" d="M183.024,20.976h1.336v0.668c0.308-0.396,0.703-0.756,1.38-0.756c1.011,0,1.6,0.668,1.6,1.749v3.05h-1.336
			v-2.628c0-0.633-0.299-0.958-0.809-0.958s-0.835,0.325-0.835,0.958v2.628h-1.336V20.976z"/>
		<path fill="#231F20" d="M191.365,22.119h-0.554V21.02h0.554v-0.299c0-0.519,0.132-0.896,0.378-1.143s0.606-0.369,1.081-0.369
			c0.422,0,0.703,0.053,0.949,0.132v1.107c-0.193-0.07-0.378-0.114-0.606-0.114c-0.308,0-0.483,0.158-0.483,0.51v0.185h1.081v1.09
			h-1.063v3.568h-1.336L191.365,22.119L191.365,22.119z"/>
		<path fill="#231F20" d="M194.177,23.34c0-1.354,1.09-2.452,2.558-2.452c1.459,0,2.54,1.081,2.54,2.452
			c0,1.354-1.09,2.452-2.558,2.452C195.258,25.792,194.177,24.711,194.177,23.34z M197.956,23.34c0-0.694-0.501-1.301-1.239-1.301
			c-0.765,0-1.222,0.589-1.222,1.301c0,0.694,0.501,1.301,1.239,1.301C197.499,24.641,197.956,24.052,197.956,23.34z"/>
		<path fill="#231F20" d="M200.242,20.976h1.336v0.949c0.272-0.65,0.712-1.072,1.503-1.037v1.397h-0.07
			c-0.888,0-1.433,0.536-1.433,1.661v1.74h-1.336V20.976z"/>
		<path fill="#231F20" d="M206.694,19.535h4.641v1.204h-3.296v1.248h2.9v1.204h-2.9v1.292h3.34v1.204h-4.685V19.535z"/>
		<path fill="#231F20" d="M212.161,24.316c0-1.028,0.782-1.503,1.898-1.503c0.475,0,0.817,0.079,1.151,0.193v-0.079
			c0-0.554-0.343-0.861-1.011-0.861c-0.51,0-0.87,0.097-1.301,0.255l-0.334-1.02c0.519-0.229,1.028-0.378,1.828-0.378
			c0.729,0,1.257,0.193,1.591,0.527c0.352,0.352,0.51,0.87,0.51,1.503v2.733h-1.292v-0.51c-0.325,0.36-0.773,0.598-1.424,0.598
			C212.89,25.775,212.161,25.265,212.161,24.316z M215.228,24.026v-0.237c-0.229-0.105-0.527-0.176-0.853-0.176
			c-0.571,0-0.923,0.229-0.923,0.668c0,0.36,0.299,0.571,0.729,0.571C214.806,24.852,215.228,24.509,215.228,24.026z"/>
		<path fill="#231F20" d="M217.645,20.976h1.336v0.949c0.272-0.65,0.712-1.072,1.503-1.037v1.397h-0.07
			c-0.888,0-1.433,0.536-1.433,1.661v1.74h-1.336V20.976z"/>
		<path fill="#231F20" d="M221.539,24.351v-2.232h-0.562v-1.143h0.562v-1.204h1.336v1.204h1.107v1.143h-1.107v2.013
			c0,0.308,0.132,0.457,0.431,0.457c0.246,0,0.466-0.062,0.659-0.167v1.072c-0.281,0.167-0.606,0.272-1.055,0.272
			C222.092,25.766,221.539,25.441,221.539,24.351z"/>
		<path fill="#231F20" d="M224.966,19.271h1.336v2.373c0.308-0.396,0.703-0.756,1.38-0.756c1.011,0,1.6,0.668,1.6,1.749v3.05h-1.336
			v-2.628c0-0.633-0.299-0.958-0.809-0.958s-0.835,0.325-0.835,0.958v2.628h-1.336V19.271z"/>
		<path fill="#231F20" d="M233.843,25.01c-0.325,0.439-0.773,0.765-1.468,0.765c-1.099,0-2.145-0.861-2.145-2.452
			c0-1.573,1.028-2.435,2.145-2.435c0.712,0,1.151,0.325,1.468,0.703v-0.615h1.336v6.117h-1.336V25.01z M233.861,23.323
			c0-0.782-0.519-1.301-1.143-1.301s-1.151,0.51-1.151,1.318c0,0.782,0.527,1.301,1.151,1.301S233.861,24.122,233.861,23.323z"/>
		<path fill="#231F20" d="M236.339,24.026v-3.05h1.336v2.628c0,0.633,0.299,0.958,0.809,0.958s0.835-0.325,0.835-0.958v-2.628h1.336
			v4.711h-1.336v-0.668c-0.308,0.396-0.703,0.756-1.38,0.756C236.928,25.775,236.339,25.107,236.339,24.026z"/>
		<path fill="#231F20" d="M241.569,24.316c0-1.028,0.782-1.503,1.898-1.503c0.475,0,0.817,0.079,1.151,0.193v-0.079
			c0-0.554-0.343-0.861-1.011-0.861c-0.51,0-0.87,0.097-1.301,0.255l-0.334-1.02c0.519-0.229,1.028-0.378,1.828-0.378
			c0.729,0,1.257,0.193,1.591,0.527c0.352,0.352,0.51,0.87,0.51,1.503v2.733h-1.292v-0.51c-0.325,0.36-0.773,0.598-1.424,0.598
			C242.298,25.775,241.569,25.265,241.569,24.316z M244.636,24.026v-0.237c-0.229-0.105-0.527-0.176-0.853-0.176
			c-0.571,0-0.923,0.229-0.923,0.668c0,0.36,0.299,0.571,0.729,0.571C244.214,24.852,244.636,24.509,244.636,24.026z"/>
		<path fill="#231F20" d="M247.054,19.271h1.336v3.419l1.564-1.714h1.6l-1.793,1.854l1.854,2.856h-1.529l-1.23-1.925l-0.466,0.492
			v1.433h-1.336V19.271z"/>
		<path fill="#231F20" d="M251.809,23.34c0-1.345,0.958-2.452,2.329-2.452c1.573,0,2.294,1.222,2.294,2.558
			c0,0.105-0.009,0.229-0.018,0.352h-3.278c0.132,0.606,0.554,0.923,1.151,0.923c0.448,0,0.773-0.141,1.143-0.483l0.765,0.677
			c-0.439,0.545-1.072,0.879-1.925,0.879C252.855,25.792,251.809,24.799,251.809,23.34z M255.131,22.962
			c-0.079-0.598-0.431-1.002-0.993-1.002c-0.554,0-0.914,0.396-1.02,1.002H255.131z"/>
		<path fill="#231F20" d="M260.203,19.535h4.641v1.204h-3.296v1.248h2.9v1.204h-2.9v1.292h3.34v1.204h-4.685V19.535z"/>
		<path fill="#231F20" d="M265.951,20.976h1.336v0.668c0.308-0.396,0.703-0.756,1.38-0.756c1.011,0,1.6,0.668,1.6,1.749v3.05h-1.336
			v-2.628c0-0.633-0.299-0.958-0.809-0.958s-0.835,0.325-0.835,0.958v2.628h-1.336L265.951,20.976L265.951,20.976z"/>
		<path fill="#231F20" d="M271.453,26.619l0.457-1.002c0.483,0.272,0.967,0.431,1.591,0.431c0.914,0,1.345-0.439,1.345-1.283v-0.229
			c-0.396,0.475-0.826,0.765-1.538,0.765c-1.099,0-2.092-0.8-2.092-2.215c0-1.406,1.011-2.197,2.092-2.197
			c0.729,0,1.16,0.308,1.521,0.703v-0.615h1.336v3.647c0,0.844-0.202,1.459-0.598,1.854c-0.439,0.439-1.116,0.633-2.03,0.633
			C272.771,27.111,272.05,26.935,271.453,26.619z M274.845,23.085c0-0.642-0.501-1.09-1.151-1.09s-1.143,0.448-1.143,1.107
			c0,0.65,0.492,1.09,1.143,1.09S274.845,23.745,274.845,23.085z"/>
		<path fill="#231F20" d="M277.385,19.271h1.406v1.187h-1.406V19.271z M277.42,20.976h1.336v4.711h-1.336V20.976z"/>
		<path fill="#231F20" d="M280.013,20.976h1.336v0.668c0.308-0.396,0.703-0.756,1.38-0.756c1.011,0,1.6,0.668,1.6,1.749v3.05h-1.336
			v-2.628c0-0.633-0.299-0.958-0.809-0.958s-0.835,0.325-0.835,0.958v2.628h-1.336L280.013,20.976L280.013,20.976z"/>
		<path fill="#231F20" d="M285.26,23.34c0-1.345,0.958-2.452,2.329-2.452c1.573,0,2.294,1.222,2.294,2.558
			c0,0.105-0.009,0.229-0.018,0.352h-3.278c0.132,0.606,0.554,0.923,1.151,0.923c0.448,0,0.773-0.141,1.143-0.483l0.765,0.677
			c-0.439,0.545-1.072,0.879-1.925,0.879C286.306,25.792,285.26,24.799,285.26,23.34z M288.582,22.962
			c-0.079-0.598-0.431-1.002-0.993-1.002c-0.554,0-0.914,0.396-1.02,1.002H288.582z"/>
		<path fill="#231F20" d="M290.648,23.34c0-1.345,0.958-2.452,2.329-2.452c1.573,0,2.294,1.222,2.294,2.558
			c0,0.105-0.009,0.229-0.018,0.352h-3.278c0.132,0.606,0.554,0.923,1.151,0.923c0.448,0,0.773-0.141,1.143-0.483l0.765,0.677
			c-0.439,0.545-1.072,0.879-1.925,0.879C291.694,25.792,290.648,24.799,290.648,23.34z M293.97,22.962
			c-0.079-0.598-0.431-1.002-0.993-1.002c-0.554,0-0.914,0.396-1.02,1.002H293.97z"/>
		<path fill="#231F20" d="M296.265,20.976h1.336v0.949c0.272-0.65,0.712-1.072,1.503-1.037v1.397h-0.07
			c-0.888,0-1.433,0.536-1.433,1.661v1.74h-1.336L296.265,20.976L296.265,20.976z"/>
		<path fill="#231F20" d="M299.965,19.271h1.406v1.187h-1.406V19.271z M300,20.976h1.336v4.711H300V20.976z"/>
		<path fill="#231F20" d="M302.593,20.976h1.336v0.668c0.308-0.396,0.703-0.756,1.38-0.756c1.011,0,1.6,0.668,1.6,1.749v3.05h-1.336
			v-2.628c0-0.633-0.299-0.958-0.809-0.958s-0.835,0.325-0.835,0.958v2.628h-1.336L302.593,20.976L302.593,20.976z"/>
		<path fill="#231F20" d="M308.095,26.619l0.457-1.002c0.483,0.272,0.967,0.431,1.591,0.431c0.914,0,1.345-0.439,1.345-1.283v-0.229
			c-0.396,0.475-0.826,0.765-1.538,0.765c-1.099,0-2.092-0.8-2.092-2.215c0-1.406,1.011-2.197,2.092-2.197
			c0.729,0,1.16,0.308,1.521,0.703v-0.615h1.336v3.647c0,0.844-0.202,1.459-0.598,1.854c-0.439,0.439-1.116,0.633-2.03,0.633
			C309.414,27.111,308.693,26.935,308.095,26.619z M311.488,23.085c0-0.642-0.501-1.09-1.151-1.09s-1.143,0.448-1.143,1.107
			c0,0.65,0.492,1.09,1.143,1.09S311.488,23.745,311.488,23.085z"/>
	</g>
</g>
<g>
	<g enable-background="new    ">
		<path fill="#231F20" d="M100.133,43.405h1.547l1.716,2.76l1.715-2.76h1.548v6.526h-1.427V45.67l-1.836,2.788h-0.038l-1.818-2.76
			v4.232h-1.408v-6.525H100.133z"/>
		<path fill="#231F20" d="M107.831,47.442c0-1.427,1.016-2.602,2.471-2.602c1.669,0,2.433,1.296,2.433,2.714
			c0,0.111-0.009,0.242-0.019,0.372h-3.478c0.14,0.644,0.587,0.979,1.221,0.979c0.476,0,0.821-0.149,1.212-0.513l0.811,0.718
			c-0.466,0.578-1.138,0.933-2.042,0.933C108.941,50.044,107.831,48.99,107.831,47.442z M111.355,47.041
			c-0.083-0.634-0.457-1.062-1.053-1.062c-0.587,0-0.97,0.42-1.082,1.062H111.355z"/>
		<path fill="#231F20" d="M113.787,44.935h1.417v0.708c0.326-0.419,0.755-0.802,1.473-0.802c0.653,0,1.147,0.289,1.408,0.793
			c0.438-0.513,0.96-0.793,1.641-0.793c1.054,0,1.688,0.635,1.688,1.837v3.254h-1.417v-2.788c0-0.671-0.298-1.016-0.83-1.016
			c-0.531,0-0.857,0.345-0.857,1.016v2.788h-1.417v-2.788c0-0.671-0.298-1.016-0.83-1.016c-0.531,0-0.857,0.345-0.857,1.016v2.788
			h-1.417v-4.997C113.789,44.935,113.787,44.935,113.787,44.935z"/>
		<path fill="#231F20" d="M124.059,49.279v0.652h-1.417v-6.806h1.417v2.526c0.345-0.466,0.82-0.812,1.557-0.812
			c1.166,0,2.275,0.914,2.275,2.602c0,1.669-1.091,2.582-2.275,2.582C124.861,50.024,124.394,49.68,124.059,49.279z M126.474,47.424
			c0-0.83-0.56-1.38-1.221-1.38c-0.662,0-1.212,0.55-1.212,1.398c0,0.83,0.55,1.38,1.212,1.38
			C125.914,48.822,126.474,48.281,126.474,47.424z"/>
		<path fill="#231F20" d="M128.691,47.442c0-1.427,1.016-2.602,2.471-2.602c1.669,0,2.433,1.296,2.433,2.714
			c0,0.111-0.009,0.242-0.019,0.372h-3.478c0.14,0.644,0.587,0.979,1.221,0.979c0.476,0,0.821-0.149,1.212-0.513l0.811,0.718
			c-0.466,0.578-1.138,0.933-2.042,0.933C129.8,50.044,128.691,48.99,128.691,47.442z M132.215,47.041
			c-0.083-0.634-0.457-1.062-1.053-1.062c-0.587,0-0.97,0.42-1.082,1.062H132.215z"/>
		<path fill="#231F20" d="M134.646,44.935h1.417v1.007c0.289-0.69,0.755-1.138,1.594-1.101v1.482h-0.075
			c-0.942,0-1.52,0.569-1.52,1.763v1.846h-1.417v-4.997C134.645,44.935,134.646,44.935,134.646,44.935z"/>
		<path fill="#231F20" d="M141.096,47.442c0-1.436,1.156-2.602,2.713-2.602c1.548,0,2.694,1.147,2.694,2.602
			c0,1.436-1.156,2.602-2.713,2.602C142.243,50.044,141.096,48.896,141.096,47.442z M145.105,47.442c0-0.736-0.531-1.38-1.314-1.38
			c-0.811,0-1.296,0.625-1.296,1.38c0,0.736,0.531,1.38,1.314,1.38C144.62,48.822,145.105,48.197,145.105,47.442z"/>
		<path fill="#231F20" d="M147.77,46.146h-0.587v-1.165h0.587v-0.317c0-0.55,0.14-0.951,0.401-1.212s0.643-0.392,1.146-0.392
			c0.448,0,0.746,0.056,1.007,0.14v1.175c-0.205-0.074-0.401-0.121-0.643-0.121c-0.326,0-0.513,0.168-0.513,0.541v0.195h1.146v1.156
			h-1.128v3.785h-1.417v-3.785C147.769,46.146,147.77,46.146,147.77,46.146z"/>
		<path fill="#231F20" d="M154.099,43.405h1.436v6.526h-1.436V43.405z"/>
		<path fill="#231F20" d="M159.402,43.358h1.324l2.797,6.573h-1.501l-0.597-1.464h-2.76l-0.597,1.464h-1.464L159.402,43.358z
			 M160.913,47.2l-0.867-2.116l-0.867,2.116H160.913z"/>
		<path fill="#231F20" d="M164.528,43.405h4.923v1.277h-3.496v1.324h3.076v1.277h-3.076v1.37h3.543v1.277h-4.97V43.405z"/>
		<path fill="#231F20" d="M170.773,43.405h4.922v1.277h-3.496v1.324h3.077v1.277h-3.077v1.37h3.543v1.277h-4.969V43.405z"/>
	</g>
</g>
</svg>
