<?xml version="1.0" encoding="UTF-8"?>
<svg width="32px" height="27px" viewBox="0 0 32 27" version="1.1" xmlns="http://www.w3.org/2000/svg" xmlns:xlink="http://www.w3.org/1999/xlink">
    <!-- Generator: Sketch 51.3 (57544) - http://www.bohemiancoding.com/sketch -->
    <title>Twitter</title>
    <desc>Created with Sketch.</desc>
    <defs></defs>
    <g id="Page-1" stroke="none" stroke-width="1" fill="none" fill-rule="evenodd">
        <g id="3-vesti-copy" transform="translate(-1078.000000, -1150.000000)" fill="#FFFFFF">
            <path d="M1109.0947,1150.49915 C1107.84162,1151.27945 1106.457,1151.84694 1104.97709,1152.15059 C1103.79822,1150.82702 1102.1134,1150 1100.24812,1150 C1096.67272,1150 1093.77109,1153.052 1093.77109,1156.81596 C1093.77109,1157.35058 1093.82674,1157.86876 1093.93805,1158.36792 C1088.55303,1158.0833 1083.77937,1155.37301 1080.58175,1151.24398 C1080.02352,1152.2544 1079.70477,1153.42658 1079.70477,1154.67489 C1079.70477,1157.03829 1080.84822,1159.12486 1082.58785,1160.34722 C1081.52704,1160.31434 1080.5261,1160.00465 1079.6508,1159.49771 L1079.6508,1159.58076 C1079.6508,1162.8845 1081.88458,1165.64064 1084.85115,1166.26436 C1084.30809,1166.4244 1083.73468,1166.50485 1083.14356,1166.50485 C1082.72615,1166.50485 1082.31886,1166.46333 1081.92421,1166.38374 C1082.74891,1169.09058 1085.14038,1171.06209 1087.97625,1171.11486 C1085.75933,1172.94364 1082.96394,1174.03364 1079.92907,1174.03364 C1079.40626,1174.03364 1078.88934,1174.0025 1078.38339,1173.94021 C1081.25045,1175.87107 1084.65804,1177 1088.31608,1177 C1100.23547,1177 1106.75129,1166.61558 1106.75129,1157.60751 C1106.75129,1157.31079 1106.74623,1157.01493 1106.73527,1156.72426 C1108.001,1155.76316 1109.1006,1154.56329 1109.96578,1153.19647 C1108.80546,1153.73801 1107.55576,1154.1048 1106.24534,1154.26917 C1107.58359,1153.42658 1108.61067,1152.0909 1109.0947,1150.49915" id="Twitter"></path>
        </g>
    </g>
</svg>