<?xml version="1.0" encoding="UTF-8"?>
<svg width="29px" height="20px" viewBox="0 0 29 20" version="1.1" xmlns="http://www.w3.org/2000/svg" xmlns:xlink="http://www.w3.org/1999/xlink">
    <!-- Generator: Sketch 52.6 (67491) - http://www.bohemiancoding.com/sketch -->
    <title>Group 2</title>
    <desc>Created with Sketch.</desc>
    <g id="Page-1" stroke="none" stroke-width="1" fill="none" fill-rule="evenodd">
        <g id="1-home" transform="translate(-1090.000000, -1965.000000)">
            <g id="Group-2" transform="translate(1090.000000, 1965.000000)">
                <path d="M27.9743506,3.12306452 C27.6457792,1.89370968 26.6775974,0.925645161 25.4482143,0.597096774 C23.2202922,0 14.2857143,0 14.2857143,0 C14.2857143,0 5.35113636,0 3.12305195,0.597096774 C1.89366883,0.925645161 0.925487013,1.89370968 0.596915584,3.12306452 C0,5.35112903 0,10 0,10 C0,10 0,14.6487097 0.596915584,16.8769355 C0.925487013,18.1062903 1.89366883,19.0743548 3.12305195,19.4030645 C5.35113636,20 14.2857143,20 14.2857143,20 C14.2857143,20 23.2202922,20 25.4482143,19.4030645 C26.6775974,19.0743548 27.6457792,18.1062903 27.9743506,16.8769355 C28.5714286,14.6487097 28.5714286,10 28.5714286,10 C28.5714286,10 28.5714286,5.35112903 27.9743506,3.12306452" id="Fill-1" fill="#FFFFFF"></path>
                <polygon id="Fill-2" fill="#FF0000" points="11.4285714 14.2857143 11.4285714 5.71428571 19.047619 10.0001638"></polygon>
            </g>
        </g>
    </g>
</svg>